<svg width="26" height="24" viewBox="0 0 26 24" fill="none" xmlns="http://www.w3.org/2000/svg">
<g id="fluent:people-community-24-filled">
<path id="Vector" d="M8.31028 8C9.15286 8 9.96094 7.68393 10.5567 7.12132C11.1525 6.55871 11.4872 5.79565 11.4872 5C11.4872 4.20435 11.1525 3.44129 10.5567 2.87868C9.96094 2.31607 9.15286 2 8.31028 2C7.46769 2 6.65962 2.31607 6.06382 2.87868C5.46803 3.44129 5.13331 4.20435 5.13331 5C5.13331 5.79565 5.46803 6.55871 6.06382 7.12132C6.65962 7.68393 7.46769 8 8.31028 8ZM2.48584 10.768C2.48584 9.79 3.3235 9 4.35813 9H9.40633C9.034 9.60782 8.83853 10.2978 8.83977 11C8.83906 11.5676 8.96659 12.1288 9.21386 12.6461C9.46112 13.1635 9.82243 13.625 10.2736 14H9.12358C8.52673 14 7.9441 14.172 7.45345 14.4929C6.9628 14.8138 6.58749 15.2684 6.37762 15.796C4.79126 15.43 3.80746 14.613 3.22819 13.703C2.48584 12.536 2.48584 11.336 2.48584 11.127V10.768ZM17.3117 11C17.313 10.2978 17.1175 9.6078 16.7451 9H21.7933C22.829 9 23.6656 9.791 23.6656 10.768V11.128C23.6656 11.335 23.6656 12.536 22.9243 13.703C22.344 14.613 21.3602 15.43 19.7738 15.796C19.5641 15.2683 19.1888 14.8136 18.6981 14.4927C18.2075 14.1718 17.6248 13.9999 17.0279 14H15.8778C16.329 13.625 16.6903 13.1635 16.9376 12.6461C17.1849 12.1288 17.3124 11.5676 17.3117 11ZM21.0181 5C21.0181 5.79565 20.6834 6.55871 20.0876 7.12132C19.4918 7.68393 18.6838 8 17.8412 8C16.9986 8 16.1905 7.68393 15.5947 7.12132C14.9989 6.55871 14.6642 5.79565 14.6642 5C14.6642 4.20435 14.9989 3.44129 15.5947 2.87868C16.1905 2.31607 16.9986 2 17.8412 2C18.6838 2 19.4918 2.31607 20.0876 2.87868C20.6834 3.44129 21.0181 4.20435 21.0181 5ZM7.25129 16.768C7.25129 15.79 8.08895 15 9.12358 15H17.0279C18.0625 15 18.9002 15.791 18.9002 16.768V17.128C18.9002 17.335 18.9002 18.536 18.1589 19.703C17.372 20.937 15.8429 22 13.0757 22C10.3086 22 8.77835 20.937 7.99258 19.703C7.25129 18.536 7.25129 17.336 7.25129 17.127V16.768ZM13.0757 14C13.4929 14 13.9061 13.9224 14.2915 13.7716C14.6769 13.6209 15.0272 13.3999 15.3222 13.1213C15.6172 12.8427 15.8512 12.512 16.0109 12.1481C16.1705 11.7841 16.2527 11.394 16.2527 11C16.2527 10.606 16.1705 10.2159 16.0109 9.85195C15.8512 9.48797 15.6172 9.15726 15.3222 8.87868C15.0272 8.6001 14.6769 8.37913 14.2915 8.22836C13.9061 8.0776 13.4929 8 13.0757 8C12.2331 8 11.4251 8.31607 10.8293 8.87868C10.2335 9.44129 9.89876 10.2044 9.89876 11C9.89876 11.7956 10.2335 12.5587 10.8293 13.1213C11.4251 13.6839 12.2331 14 13.0757 14Z" fill="white"/>
</g>
</svg>
