<svg width="32" height="20" viewBox="0 0 32 20" fill="none" xmlns="http://www.w3.org/2000/svg">
<g id="Group 56598">
<g id="Group 15350">
<ellipse id="Ellipse 674" cx="10.2291" cy="10" rx="9.30124" ry="9" fill="#D17655" stroke="#413F3D" stroke-width="0.3"/>
<path id="Union" d="M10.2291 16.409L6.4912 12.6849L4.97327 11.1187C4.97327 11.1187 3.85004 9.63963 3.85004 8.66783C3.85004 6.84232 5.38041 5.36151 7.26777 5.36151C8.53304 5.36151 9.63865 6.02831 10.2291 7.01795C10.8196 6.02831 11.9252 5.36151 13.1904 5.36151C15.0778 5.36151 16.6082 6.84232 16.6082 8.66783C16.6082 9.63963 15.4849 11.1187 15.4849 11.1187L13.7175 12.8876L10.2291 16.409Z" fill="#FDF3F0" stroke="#792A0E" stroke-width="0.2"/>
</g>
<path id="Vector" d="M24.5696 2.45386C23.615 2.45386 22.6698 2.64188 21.7878 3.00719C20.9059 3.37251 20.1045 3.90796 19.4295 4.58297C18.0663 5.94621 17.3004 7.79517 17.3004 9.72309C17.294 11.4017 17.8752 13.0295 18.9432 14.3245L17.4894 15.7784C17.3885 15.8806 17.3202 16.0104 17.293 16.1514C17.2659 16.2924 17.2811 16.4383 17.3367 16.5707C17.3971 16.7015 17.495 16.8114 17.618 16.8865C17.7409 16.9615 17.8834 16.9984 18.0273 16.9923H24.5696C26.4975 16.9923 28.3465 16.2265 29.7098 14.8632C31.073 13.5 31.8389 11.651 31.8389 9.72309C31.8389 7.79517 31.073 5.94621 29.7098 4.58297C28.3465 3.21972 26.4975 2.45386 24.5696 2.45386ZM24.5696 15.5385H19.7792L20.4552 14.8624C20.5906 14.7262 20.6666 14.542 20.6666 14.35C20.6666 14.1579 20.5906 13.9737 20.4552 13.8375C19.5034 12.8867 18.9107 11.6353 18.778 10.2965C18.6454 8.95768 18.981 7.61429 19.7278 6.4952C20.4745 5.37612 21.5862 4.55057 22.8734 4.1592C24.1605 3.76784 25.5436 3.83487 26.7869 4.34888C28.0302 4.8629 29.0568 5.79209 29.6918 6.97815C30.3269 8.16421 30.531 9.53376 30.2695 10.8535C30.008 12.1732 29.297 13.3614 28.2577 14.2157C27.2184 15.0699 25.915 15.5374 24.5696 15.5385Z" fill="#F5DD85"/>
</g>
</svg>
