<svg width="33" height="31" viewBox="0 0 33 31" fill="none" xmlns="http://www.w3.org/2000/svg">
<g id="material-symbols:menu-rounded">
<path id="Vector" d="M5.38241 22.8539C5.00116 22.8539 4.68135 22.732 4.423 22.4882C4.16464 22.2444 4.03591 21.9431 4.03681 21.5842C4.03681 21.2245 4.16599 20.9227 4.42434 20.6789C4.6827 20.4352 5.00206 20.3137 5.38241 20.3146H26.9121C27.2934 20.3146 27.6132 20.4364 27.8715 20.6802C28.1299 20.924 28.2586 21.2253 28.2577 21.5842C28.2577 21.944 28.1285 22.2457 27.8702 22.4895C27.6118 22.7333 27.2925 22.8547 26.9121 22.8539H5.38241ZM5.38241 16.5056C5.00116 16.5056 4.68135 16.3837 4.423 16.1399C4.16464 15.8961 4.03591 15.5948 4.03681 15.2359C4.03681 14.8762 4.16599 14.5744 4.42434 14.3306C4.6827 14.0869 5.00206 13.9654 5.38241 13.9662H26.9121C27.2934 13.9662 27.6132 14.0881 27.8715 14.3319C28.1299 14.5757 28.2586 14.877 28.2577 15.2359C28.2577 15.5956 28.1285 15.8974 27.8702 16.1412C27.6118 16.3849 27.2925 16.5064 26.9121 16.5056H5.38241ZM5.38241 10.1573C5.00116 10.1573 4.68135 10.0354 4.423 9.79159C4.16464 9.54781 4.03591 9.24648 4.03681 8.88759C4.03681 8.52785 4.16599 8.22609 4.42434 7.98232C4.6827 7.73854 5.00206 7.61708 5.38241 7.61792H26.9121C27.2934 7.61792 27.6132 7.73981 27.8715 7.98359C28.1299 8.22736 28.2586 8.5287 28.2577 8.88759C28.2577 9.24733 28.1285 9.54908 27.8702 9.79286C27.6118 10.0366 27.2925 10.1581 26.9121 10.1573H5.38241Z" fill="white"/>
</g>
</svg>
