<svg width="26" height="24" viewBox="0 0 26 24" fill="none" xmlns="http://www.w3.org/2000/svg">
<g id="mdi:charity">
<path id="Vector" d="M13.5302 3.94C14.5892 3.22 15.8176 2.86 17.2049 2.86C17.9673 2.86 18.8039 3.05 19.7147 3.45C20.6254 3.84 21.3455 4.3 21.875 4.83C22.9658 6.11 23.4211 7.6 23.2623 9.3C23.0929 11 22.4998 12.33 21.4726 13.27L13.4349 20.86C13.2337 21.05 12.9795 21.14 12.683 21.14C12.3865 21.14 12.1429 21.05 11.9417 20.86C11.8439 20.7689 11.7671 20.6597 11.716 20.5392C11.665 20.4188 11.6409 20.2897 11.6452 20.16C11.6452 19.88 11.7405 19.64 11.9417 19.45L16.8025 14.86C17.0672 14.64 17.0672 14.41 16.8025 14.16C16.5377 13.91 16.2941 13.91 16.0612 14.16L11.2004 18.75C11.1024 18.8432 10.985 18.9162 10.8556 18.9644C10.7261 19.0126 10.5875 19.035 10.4485 19.03C10.152 19.03 9.90844 18.94 9.70724 18.75C9.60943 18.6589 9.53261 18.5497 9.48158 18.4292C9.43056 18.3088 9.40643 18.1797 9.41072 18.05C9.41072 17.77 9.50603 17.53 9.70724 17.34L14.568 12.75C14.8539 12.5 14.8539 12.25 14.568 12C14.3244 11.75 14.0914 11.75 13.8267 12L8.96594 16.64C8.86682 16.7318 8.7492 16.8039 8.62005 16.852C8.49091 16.9001 8.35285 16.9232 8.21406 16.92C7.91755 16.92 7.66339 16.83 7.441 16.64C7.2292 16.45 7.1233 16.22 7.1233 15.94C7.1233 15.66 7.23979 15.41 7.47277 15.19L12.3441 10.59C12.6089 10.34 12.6089 10.11 12.3441 9.89C12.0794 9.67 11.8252 9.67 11.5922 9.89L6.67853 14.5C6.44555 14.7 6.20198 14.81 5.93724 14.81C5.64072 14.81 5.38656 14.71 5.19594 14.5C4.99474 14.3 4.88884 14.06 4.88884 13.78C4.88884 13.5 4.99474 13.27 5.19594 13.08C8.43645 10 10.4379 8.14 11.2004 7.45L14.9704 10.97C15.3834 11.34 15.86 11.53 16.4424 11.53C17.1837 11.53 17.7661 11.25 18.2003 10.69C18.4968 10.28 18.6027 9.83 18.518 9.33C18.4333 8.83 18.2109 8.41 17.8509 8.06L13.5302 3.94ZM15.7117 10.27L11.2004 6L3.70277 13.08C2.81322 12.23 2.30491 10.93 2.18842 9.16C2.07193 7.4 2.58024 5.87 3.70277 4.59C4.96297 3.41 6.46673 2.81 8.21406 2.81C9.97198 2.81 11.4652 3.41 12.683 4.59L17.2049 8.86C17.4061 9.05 17.5014 9.28 17.5014 9.56C17.5014 9.84 17.4061 10.08 17.2049 10.27C17.0037 10.45 16.7601 10.55 16.4424 10.55C16.1565 10.55 15.9129 10.45 15.7117 10.27Z" fill="white"/>
</g>
</svg>
