<svg width="27" height="24" viewBox="0 0 27 24" fill="none" xmlns="http://www.w3.org/2000/svg">
<g id="mdi:church">
<path id="Vector" d="M19.7696 12.22V9L14.4747 6.5V5H16.5927V3H14.4747V1H12.3567V3H10.2387V5H12.3567V6.5L7.06176 9V12.22L2.82581 14V22H11.2977V19C11.2977 17.9 12.2508 17 13.4157 17C14.5806 17 15.5337 17.9 15.5337 19V22H24.0056V14L19.7696 12.22ZM13.4157 13.5C12.5367 13.5 11.8272 12.83 11.8272 12C11.8272 11.17 12.5367 10.5 13.4157 10.5C14.2947 10.5 15.0042 11.17 15.0042 12C15.0042 12.83 14.2947 13.5 13.4157 13.5Z" fill="white"/>
</g>
</svg>
