<svg width="27" height="24" viewBox="0 0 27 24" fill="none" xmlns="http://www.w3.org/2000/svg">
<g id="uis:calender">
<path id="Vector" d="M2.80621 19C2.80621 20.7 4.1829 22 5.98318 22H20.809C22.6093 22 23.986 20.7 23.986 19V11H2.80621V19ZM20.809 4H18.691V3C18.691 2.4 18.2675 2 17.6321 2C16.9967 2 16.5731 2.4 16.5731 3V4H10.2191V3C10.2191 2.4 9.79554 2 9.16015 2C8.52475 2 8.10116 2.4 8.10116 3V4H5.98318C4.1829 4 2.80621 5.3 2.80621 7V9H23.986V7C23.986 5.3 22.6093 4 20.809 4Z" fill="white"/>
</g>
</svg>
